<svg width="24" height="33" viewBox="0 0 24 33" fill="none" xmlns="http://www.w3.org/2000/svg">
<path d="M0 0L4.48991 2.32571V6.5572C7.55855 4.87752 13.1144 2.93943 19.5342 6.5572V2.32571L24 0L21.7832 9.20592L19.5342 11.4347V14.3419L21.3655 21.319L18.9587 26.3903L19.1808 27.2301L16.656 29.1359L16.7712 29.7497L12.0162 32.3015L7.26783 29.7497L7.38374 29.1359L4.84522 27.2301L5.06851 26.3903L2.64872 21.319L4.48991 14.3419V11.4347L2.2288 9.20592L0 0Z" fill="#EED9C3"/>
<path d="M4.48991 2.32571L0 0L2.2288 9.20592L4.48991 11.4347V12.8883V14.3419L5.01266 15.3271L5.53542 16.3122C6.86281 11.5058 10.3767 12.9098 11.9838 14.1803C13.5824 12.9098 17.1741 11.5058 18.4943 16.3122L19.5342 14.3419V11.4347L21.7832 9.20592L24 0L19.5342 2.32571V6.5572C13.1144 2.93943 7.55855 4.87752 4.48991 6.5572V4.44145V2.32571Z" fill="#E3B261"/>
<path d="M7.26782 29.7496L12.0161 32.3014L16.7712 29.7496L16.6559 29.1359L14.5383 17.8627L11.9838 16.6029L9.51278 17.8627L7.38373 29.1359L7.26782 29.7496Z" fill="#E6E6E6"/>
<path d="M7.00941 19.0901L5.0685 26.3902L2.64871 21.3189L4.4899 14.3418L5.53541 16.3122L7.00941 19.0901Z" fill="#E6E6E6"/>
<path d="M17.0283 19.0901L18.9587 26.3902L21.3655 21.3189L19.5342 14.3418L18.4943 16.3122L17.0283 19.0901Z" fill="#E6E6E6"/>
<circle cx="15.1171" cy="14.7941" r="0.742934" fill="#353535"/>
<path d="M7.39703 15.3109C7.39703 14.6152 7.96105 14.0511 8.65679 14.0511H10.1879C10.4662 14.0511 10.6918 14.2768 10.6918 14.5551V14.5551C10.6918 15.6682 9.78936 16.5707 8.67617 16.5707H8.05598C7.69206 16.5707 7.39703 16.2756 7.39703 15.9117V15.3109Z" fill="#A78347"/>
<path d="M11.0794 18.1211H12.8883V18.9609C12.8883 19.4604 12.4834 19.8654 11.9838 19.8654V19.8654C11.4843 19.8654 11.0794 19.4604 11.0794 18.9609V18.1211Z" fill="#353535"/>
<path d="M9.51278 17.8951L7.00941 19.1225L5.06851 26.4227L4.84521 27.2625L7.38373 29.1683L9.51278 17.8951Z" fill="#D5D5D5"/>
<path d="M14.5384 17.8951L17.0283 19.1225L18.9587 26.4227L19.1808 27.2625L16.6559 29.1683L14.5384 17.8951Z" fill="#D5D5D5"/>
</svg>
